<mxfile host="drawio-plugin" modified="2025-08-11T15:07:56.097Z" agent="5.0 (Windows NT 10.0; Win64; x64) AppleWebKit/537.36 (KHTML, like Gecko) Chrome/111.0.0.0 Safari/537.36" etag="tecM_BjTdLkcB0BjObYo" version="20.5.3" type="embed"><diagram id="23iRSUPoRavnBvh4doch" name="Page-1"><mxGraphModel dx="836" dy="744" grid="1" gridSize="10" guides="1" tooltips="1" connect="1" arrows="1" fold="1" page="1" pageScale="1" pageWidth="827" pageHeight="1169" math="0" shadow="0"><root><mxCell id="0"/><mxCell id="1" parent="0"/><mxCell id="2" value="&lt;font style=&quot;font-size: 18px;&quot;&gt;l1&lt;/font&gt;" style="ellipse;whiteSpace=wrap;html=1;aspect=fixed;" vertex="1" parent="1"><mxGeometry x="80" y="80" width="80" height="80" as="geometry"/></mxCell><mxCell id="3" value="&lt;font style=&quot;font-size: 18px;&quot;&gt;l2&lt;/font&gt;" style="ellipse;whiteSpace=wrap;html=1;aspect=fixed;" vertex="1" parent="1"><mxGeometry x="80" y="200" width="80" height="80" as="geometry"/></mxCell><mxCell id="4" value="&lt;font style=&quot;font-size: 18px;&quot;&gt;l3&lt;/font&gt;" style="ellipse;whiteSpace=wrap;html=1;aspect=fixed;" vertex="1" parent="1"><mxGeometry x="80" y="320" width="80" height="80" as="geometry"/></mxCell><mxCell id="5" value="&lt;font style=&quot;font-size: 18px;&quot;&gt;r1&lt;/font&gt;" style="ellipse;whiteSpace=wrap;html=1;aspect=fixed;" vertex="1" parent="1"><mxGeometry x="320" y="80" width="80" height="80" as="geometry"/></mxCell><mxCell id="6" value="&lt;font style=&quot;font-size: 18px;&quot;&gt;r2&lt;/font&gt;" style="ellipse;whiteSpace=wrap;html=1;aspect=fixed;" vertex="1" parent="1"><mxGeometry x="320" y="200" width="80" height="80" as="geometry"/></mxCell><mxCell id="7" value="&lt;font style=&quot;font-size: 18px;&quot;&gt;r3&lt;/font&gt;" style="ellipse;whiteSpace=wrap;html=1;aspect=fixed;" vertex="1" parent="1"><mxGeometry x="320" y="320" width="80" height="80" as="geometry"/></mxCell><mxCell id="8" value="&lt;font style=&quot;font-size: 18px;&quot;&gt;r4&lt;/font&gt;" style="ellipse;whiteSpace=wrap;html=1;aspect=fixed;" vertex="1" parent="1"><mxGeometry x="320" y="440" width="80" height="80" as="geometry"/></mxCell><mxCell id="9" value="" style="endArrow=none;html=1;rounded=0;fontSize=18;exitX=1;exitY=0.5;exitDx=0;exitDy=0;" edge="1" parent="1" source="2" target="5"><mxGeometry width="50" height="50" relative="1" as="geometry"><mxPoint x="400" y="380" as="sourcePoint"/><mxPoint x="450" y="330" as="targetPoint"/></mxGeometry></mxCell><mxCell id="11" value="" style="endArrow=none;html=1;rounded=0;fontSize=18;exitX=1;exitY=0.5;exitDx=0;exitDy=0;entryX=0;entryY=0.5;entryDx=0;entryDy=0;" edge="1" parent="1" source="2" target="6"><mxGeometry width="50" height="50" relative="1" as="geometry"><mxPoint x="400" y="410" as="sourcePoint"/><mxPoint x="450" y="360" as="targetPoint"/></mxGeometry></mxCell><mxCell id="12" value="" style="endArrow=none;html=1;rounded=0;fontSize=18;exitX=1;exitY=0.5;exitDx=0;exitDy=0;entryX=0;entryY=0.5;entryDx=0;entryDy=0;" edge="1" parent="1" source="3" target="6"><mxGeometry width="50" height="50" relative="1" as="geometry"><mxPoint x="400" y="410" as="sourcePoint"/><mxPoint x="450" y="360" as="targetPoint"/></mxGeometry></mxCell><mxCell id="13" value="" style="endArrow=none;html=1;rounded=0;fontSize=18;exitX=1;exitY=0.5;exitDx=0;exitDy=0;" edge="1" parent="1" source="4"><mxGeometry width="50" height="50" relative="1" as="geometry"><mxPoint x="400" y="410" as="sourcePoint"/><mxPoint x="320" y="360" as="targetPoint"/></mxGeometry></mxCell><mxCell id="14" value="" style="endArrow=none;html=1;rounded=0;fontSize=18;exitX=1;exitY=0.5;exitDx=0;exitDy=0;entryX=0;entryY=0.5;entryDx=0;entryDy=0;" edge="1" parent="1" source="4" target="8"><mxGeometry width="50" height="50" relative="1" as="geometry"><mxPoint x="400" y="410" as="sourcePoint"/><mxPoint x="450" y="360" as="targetPoint"/></mxGeometry></mxCell></root></mxGraphModel></diagram></mxfile>